<svg width="852" height="705" viewBox="0 0 852 705" fill="none" xmlns="http://www.w3.org/2000/svg">
<g id="All Done">
<path id="Fill 1" fill-rule="evenodd" clip-rule="evenodd" d="M564.591 199.063C700.014 199.063 809.811 308.863 809.811 444.283C809.811 579.703 700.014 689.503 564.591 689.503C429.144 689.503 319.371 579.703 319.371 444.283C319.371 308.863 429.144 199.063 564.591 199.063ZM706.644 451.603C733.374 442.933 747.981 414.223 739.311 387.493C730.644 360.793 701.931 346.153 675.201 354.853C648.504 363.523 633.864 392.233 642.561 418.933C651.231 445.663 679.941 460.303 706.644 451.603ZM683.811 521.863C667.311 499.123 635.514 494.083 612.774 510.613C590.031 527.113 584.994 558.943 601.524 581.653C618.024 604.393 649.851 609.433 672.561 592.903C695.301 576.403 700.341 544.573 683.811 521.863ZM513.711 311.443C513.711 339.523 536.481 362.293 564.591 362.293C592.671 362.293 615.441 339.523 615.441 311.443C615.441 283.333 592.671 260.563 564.591 260.563C536.481 260.563 513.711 283.333 513.711 311.443ZM527.661 581.653C544.161 558.943 539.124 527.113 516.384 510.613C493.671 494.083 461.841 499.123 445.341 521.863C428.811 544.573 433.851 576.403 456.591 592.903C479.331 609.433 511.134 604.393 527.661 581.653ZM389.841 387.493C381.171 414.223 395.781 442.933 422.511 451.603C449.241 460.303 477.921 445.663 486.624 418.933C495.291 392.233 480.681 363.523 453.954 354.853C427.221 346.153 398.541 360.793 389.841 387.493Z" fill="#FEFEFE"/>
<path id="Fill 3" fill-rule="evenodd" clip-rule="evenodd" d="M715.803 444.281C715.803 527.795 648.102 595.496 564.585 595.496C481.071 595.496 413.367 527.795 413.367 444.281C413.367 360.767 481.071 293.063 564.585 293.063C648.102 293.063 715.803 360.767 715.803 444.281Z" fill="#E8E9EB"/>
<path id="Fill 5" fill-rule="evenodd" clip-rule="evenodd" d="M705.303 444.281C705.303 521.996 642.303 584.999 564.585 584.999C486.867 584.999 423.867 521.996 423.867 444.281C423.867 366.563 486.867 303.563 564.585 303.563C642.303 303.563 705.303 366.563 705.303 444.281Z" fill="#2C2C36"/>
<path id="Fill 7" fill-rule="evenodd" clip-rule="evenodd" d="M706.643 451.602C679.943 460.302 651.23 445.665 642.563 418.932C633.863 392.232 648.503 363.522 675.203 354.852C701.933 346.152 730.643 360.792 739.313 387.492C747.98 414.222 733.373 442.932 706.643 451.602ZM672.563 592.905C649.85 609.432 618.023 604.395 601.523 581.655C584.993 558.942 590.033 527.112 612.773 510.612C635.513 494.082 667.313 499.122 683.813 521.862C700.34 544.572 695.303 576.405 672.563 592.905ZM513.71 311.442C513.71 283.332 536.48 260.562 564.59 260.562C592.673 260.562 615.443 283.332 615.443 311.442C615.443 339.522 592.673 362.292 564.59 362.292C536.48 362.292 513.71 339.522 513.71 311.442ZM527.663 581.655C511.133 604.395 479.33 609.432 456.593 592.905C433.853 576.405 428.813 544.572 445.343 521.862C461.843 499.122 493.673 494.082 516.383 510.612C539.123 527.112 544.163 558.942 527.663 581.655ZM389.843 387.492C398.543 360.792 427.223 346.152 453.953 354.852C480.683 363.522 495.293 392.232 486.623 418.932C477.923 445.665 449.243 460.302 422.513 451.602C395.783 442.932 381.173 414.222 389.843 387.492ZM564.59 212.262C436.433 212.262 332.543 316.122 332.543 444.285C332.543 572.415 436.433 676.302 564.59 676.302C692.72 676.302 796.613 572.415 796.613 444.285C796.613 316.122 692.72 212.262 564.59 212.262Z" fill="#E8E9EB"/>
<path id="Fill 9" fill-rule="evenodd" clip-rule="evenodd" d="M707.234 311.244C706.157 310.92 705.353 310.272 704.828 309.3L677.195 260.136C676.88 259.68 676.469 258.969 675.968 258C675.464 257.037 674.72 255.33 673.733 252.885C672.746 250.437 671.939 247.989 671.315 245.538C670.691 243.087 670.334 240.243 670.244 237C670.151 233.757 670.523 230.745 671.357 227.964C674.096 218.823 678.875 212.472 685.694 208.902C692.516 205.332 700.577 204.942 709.883 207.732C712.457 208.503 714.95 209.739 717.362 211.434C719.774 213.129 721.907 215.082 723.755 217.29C725.606 219.495 727.163 221.514 728.426 223.341C729.689 225.168 730.844 227.055 731.891 228.996C733.835 227.949 735.836 227.01 737.897 226.182C739.955 225.351 742.367 224.52 745.127 223.695C747.887 222.87 750.74 222.414 753.686 222.324C756.635 222.234 759.395 222.576 761.969 223.347C771.275 226.137 777.794 230.898 781.526 237.63C785.255 244.362 785.753 252.297 783.014 261.435C780.26 270.615 772.7 278.535 760.337 285.195L710.312 310.944C709.34 311.469 708.314 311.568 707.234 311.244Z" fill="url(#paint0_linear_1_250)"/>
<path id="Fill 11" fill-rule="evenodd" clip-rule="evenodd" d="M835.494 180.201C835.092 180.276 834.723 180.201 834.396 179.97L817.296 168.648C817.116 168.552 816.864 168.39 816.543 168.162C816.219 167.934 815.694 167.505 814.971 166.878C814.245 166.248 813.576 165.591 812.97 164.901C812.361 164.211 811.773 163.35 811.206 162.318C810.639 161.283 810.258 160.248 810.066 159.207C809.436 155.796 809.931 152.946 811.545 150.66C813.159 148.374 815.7 146.91 819.177 146.268C820.137 146.091 821.148 146.076 822.21 146.226C823.272 146.373 824.286 146.652 825.249 147.06C826.215 147.465 827.055 147.861 827.766 148.242C828.477 148.623 829.164 149.043 829.824 149.496C830.28 148.836 830.772 148.2 831.303 147.588C831.828 146.979 832.47 146.31 833.229 145.584C833.985 144.861 834.831 144.24 835.77 143.721C836.709 143.202 837.66 142.854 838.62 142.677C842.094 142.035 844.992 142.494 847.317 144.054C849.642 145.614 851.118 148.098 851.748 151.512C852.381 154.938 851.25 158.754 848.355 162.96L836.439 179.592C836.214 179.925 835.899 180.126 835.494 180.201Z" fill="url(#paint1_linear_1_250)"/>
<path id="Fill 13" fill-rule="evenodd" clip-rule="evenodd" d="M605.639 444.281C605.639 466.955 587.258 485.333 564.584 485.333C541.913 485.333 523.535 466.955 523.535 444.281C523.535 421.607 541.913 403.229 564.584 403.229C587.258 403.229 605.639 421.607 605.639 444.281Z" fill="#AFB0B5"/>
<path id="Fill 15" fill-rule="evenodd" clip-rule="evenodd" d="M593.612 444.281C593.612 460.313 580.616 473.309 564.581 473.309C548.549 473.309 535.553 460.313 535.553 444.281C535.553 428.249 548.549 415.253 564.581 415.253C580.616 415.253 593.612 428.249 593.612 444.281Z" fill="#1A1A24"/>
<path id="Fill 17" fill-rule="evenodd" clip-rule="evenodd" d="M239.172 438.826C235.236 453.01 220.548 461.314 206.367 457.378C192.186 453.442 183.879 438.754 187.815 424.573C191.751 410.389 206.439 402.085 220.62 406.021C234.804 409.957 243.108 424.645 239.172 438.826Z" fill="#FBCF0A"/>
<path id="Fill 19" fill-rule="evenodd" clip-rule="evenodd" d="M201.936 428.491C198 442.672 183.312 450.979 169.131 447.043C154.95 443.107 146.643 428.419 150.579 414.238C154.515 400.054 169.203 391.75 183.384 395.686C197.568 399.622 205.872 414.31 201.936 428.491Z" fill="#FBE381"/>
<path id="Fill 21" fill-rule="evenodd" clip-rule="evenodd" d="M296.752 432.112C292.816 446.293 278.128 454.6 263.947 450.664C249.766 446.728 241.459 432.04 245.395 417.859C249.331 403.675 264.019 395.371 278.2 399.307C292.381 403.243 300.688 417.931 296.752 432.112Z" fill="#FBCF0A"/>
<path id="Fill 23" fill-rule="evenodd" clip-rule="evenodd" d="M259.522 421.778C255.586 435.962 240.898 444.266 226.717 440.33C212.536 436.394 204.229 421.706 208.165 407.525C212.101 393.341 226.789 385.037 240.97 388.973C255.151 392.909 263.458 407.597 259.522 421.778Z" fill="#FBE381"/>
<path id="Fill 25" fill-rule="evenodd" clip-rule="evenodd" d="M247.648 375.735C252.109 361.71 267.094 353.958 281.119 358.419C295.147 362.88 302.899 377.865 298.438 391.89C293.977 405.918 278.989 413.67 264.964 409.209C250.939 404.748 243.187 389.76 247.648 375.735Z" fill="#FBCF0A"/>
<path id="Fill 27" fill-rule="evenodd" clip-rule="evenodd" d="M180.001 375.735C184.462 361.71 199.447 353.958 213.475 358.419C227.5 362.88 235.252 377.865 230.791 391.89C226.33 405.918 211.345 413.67 197.317 409.209C183.292 404.748 175.54 389.76 180.001 375.735Z" fill="#FBCF0A"/>
<path id="Fill 29" fill-rule="evenodd" clip-rule="evenodd" d="M337.132 334.136C341.593 320.111 356.578 312.356 370.606 316.817C384.631 321.278 392.383 336.266 387.922 350.291C383.461 364.316 368.476 372.071 354.448 367.607C340.426 363.146 332.671 348.161 337.132 334.136Z" fill="#FBCF0A"/>
<path id="Fill 31" fill-rule="evenodd" clip-rule="evenodd" d="M284.468 387.448C288.929 373.423 303.917 365.668 317.942 370.132C331.967 374.59 339.719 389.578 335.258 403.603C330.797 417.628 315.812 425.383 301.787 420.922C287.762 416.458 280.007 401.473 284.468 387.448Z" fill="#FBE381"/>
<path id="Fill 33" fill-rule="evenodd" clip-rule="evenodd" d="M292.659 424.328C297.12 410.303 312.105 402.551 326.133 407.012C340.158 411.47 347.91 426.458 343.449 440.483C338.988 454.508 324.003 462.263 309.975 457.802C295.95 453.338 288.198 438.353 292.659 424.328Z" fill="#FBCF0A"/>
<path id="Fill 35" fill-rule="evenodd" clip-rule="evenodd" d="M329.48 436.039C333.941 422.014 348.926 414.262 362.951 418.723C376.979 423.184 384.731 438.169 380.27 452.197C375.809 466.222 360.824 473.977 346.796 469.513C332.771 465.052 325.019 450.067 329.48 436.039Z" fill="#FBE381"/>
<path id="Fill 37" fill-rule="evenodd" clip-rule="evenodd" d="M294.629 382.765C280.487 378.691 272.324 363.922 276.398 349.78C280.475 335.638 295.241 327.475 309.383 331.549C323.525 335.626 331.688 350.392 327.614 364.534C323.54 378.679 308.771 386.839 294.629 382.765Z" fill="#FBCF0A"/>
<path id="Fill 39" fill-rule="evenodd" clip-rule="evenodd" d="M344.649 438.102C330.507 434.028 322.344 419.259 326.421 405.117C330.495 390.975 345.264 382.812 359.406 386.889C373.548 390.963 381.711 405.729 377.634 419.874C373.56 434.016 358.791 442.176 344.649 438.102Z" fill="#FBCF0A"/>
<path id="Fill 41" fill-rule="evenodd" clip-rule="evenodd" d="M374.152 397.6C360.01 393.526 351.847 378.757 355.921 364.615C359.998 350.473 374.764 342.31 388.906 346.384C403.051 350.461 411.211 365.227 407.137 379.369C403.063 393.514 388.294 401.674 374.152 397.6Z" fill="#FBCF0A"/>
<path id="Fill 43" fill-rule="evenodd" clip-rule="evenodd" d="M383.461 440.258C369.319 436.184 361.156 421.415 365.233 407.273C369.307 393.131 384.076 384.968 398.218 389.045C412.36 393.119 420.523 407.885 416.446 422.03C412.372 436.172 397.603 444.332 383.461 440.258Z" fill="#FBE381"/>
<path id="Fill 45" fill-rule="evenodd" clip-rule="evenodd" d="M429.636 391.031C444.351 391.232 456.12 403.328 455.916 418.043C455.715 432.761 443.622 444.527 428.904 444.326C414.189 444.122 402.423 432.029 402.624 417.314C402.825 402.596 414.918 390.83 429.636 391.031Z" fill="#FBCF0A"/>
<path id="Fill 47" fill-rule="evenodd" clip-rule="evenodd" d="M409.409 352.335C424.124 352.536 435.893 364.632 435.689 379.347C435.488 394.065 423.395 405.831 408.677 405.63C393.962 405.426 382.196 393.333 382.397 378.618C382.598 363.9 394.694 352.134 409.409 352.335Z" fill="#FBE381"/>
<path id="Fill 49" fill-rule="evenodd" clip-rule="evenodd" d="M328.496 394.476C314.354 390.402 306.191 375.633 310.265 361.491C314.342 347.349 329.111 339.186 343.25 343.263C357.395 347.337 365.558 362.103 361.481 376.248C357.407 390.39 342.638 398.55 328.496 394.476Z" fill="#FBE381"/>
<path id="Fill 51" fill-rule="evenodd" clip-rule="evenodd" d="M230.58 394.476C216.438 390.402 208.275 375.633 212.349 361.491C216.426 347.349 231.195 339.186 245.334 343.263C259.479 347.337 267.639 362.103 263.565 376.248C259.491 390.39 244.722 398.55 230.58 394.476Z" fill="#FBE381"/>
<path id="Fill 53" fill-rule="evenodd" clip-rule="evenodd" d="M253.975 367.82C239.833 363.746 231.67 348.977 235.747 334.835C239.821 320.693 254.59 312.53 268.729 316.607C282.874 320.681 291.037 335.447 286.96 349.592C282.886 363.734 268.117 371.894 253.975 367.82Z" fill="#FBE381"/>
<path id="Fill 55" fill-rule="evenodd" clip-rule="evenodd" d="M431.595 464.361V464.388L427.935 480.909L384.825 675.759L383.334 682.482C381.954 688.674 376.437 693.12 370.077 693.12H213.132C206.997 693.12 201.624 689.013 200.046 683.073L198.078 675.786V675.759L146.1 483.693L140.865 464.361V464.331C141.345 446.154 155.781 431.547 173.538 431.547C185.499 431.547 195.909 438.186 201.651 448.038C201.678 448.095 201.708 448.152 201.735 448.206C207.42 438.273 217.89 431.547 229.905 431.547C241.893 431.547 252.363 438.273 258.075 448.206C258.075 448.206 258.075 448.176 258.102 448.176C263.787 438.273 274.227 431.547 286.245 431.547C298.065 431.547 308.418 438.075 314.16 447.786C314.244 447.924 314.331 448.065 314.412 448.206C320.097 438.273 330.567 431.547 342.585 431.547C354.6 431.547 365.067 438.273 370.752 448.206C370.809 448.122 370.866 448.038 370.92 447.954C376.605 438.162 387.018 431.547 398.922 431.547C416.679 431.547 431.115 446.178 431.595 464.361Z" fill="#F1F2F6"/>
<path id="Fill 57" fill-rule="evenodd" clip-rule="evenodd" d="M266.657 693.12H230.27L228.245 675.759L201.65 448.038C201.677 448.095 201.707 448.152 201.734 448.206C207.419 438.273 217.889 431.547 229.904 431.547C241.892 431.547 252.362 438.273 258.074 448.206C258.074 448.206 258.074 448.179 258.101 448.179L266.036 675.759L266.657 693.12Z" fill="url(#paint2_linear_1_250)"/>
<path id="Fill 59" fill-rule="evenodd" clip-rule="evenodd" d="M370.923 447.955L343.71 675.76L341.628 693.121H302.004L302.877 675.76L314.163 447.784C314.247 447.925 314.331 448.066 314.415 448.207C320.1 438.271 330.57 431.548 342.585 431.548C354.603 431.548 365.07 438.271 370.755 448.207C370.812 448.123 370.866 448.036 370.923 447.955Z" fill="url(#paint3_linear_1_250)"/>
<path id="Fill 61" fill-rule="evenodd" clip-rule="evenodd" d="M384.823 675.758L383.332 682.481C381.952 688.676 376.438 693.119 370.075 693.119H213.133C206.998 693.119 201.622 689.012 200.047 683.072L198.076 675.785V675.758H384.823Z" fill="#DCDCDC"/>
<path id="Fill 63" fill-rule="evenodd" clip-rule="evenodd" d="M237.959 675.758C237.959 691.301 225.359 703.898 209.816 703.898C194.273 703.898 181.676 691.301 181.676 675.758C181.676 660.215 194.273 647.615 209.816 647.615C225.359 647.615 237.959 660.215 237.959 675.758Z" fill="#FBCF0A"/>
<path id="Fill 65" fill-rule="evenodd" clip-rule="evenodd" d="M197.148 675.758C197.148 691.301 184.548 703.898 169.008 703.898C153.465 703.898 140.865 691.301 140.865 675.758C140.865 660.215 153.465 647.615 169.008 647.615C184.548 647.615 197.148 660.215 197.148 675.758Z" fill="#FBE381"/>
<path id="Fill 67" fill-rule="evenodd" clip-rule="evenodd" d="M532.508 241.192L469.745 366.085C467.774 370.009 462.974 371.596 459.053 369.625C455.132 367.654 453.515 362.842 455.489 358.921L518.327 233.875C520.334 230.068 525.095 228.553 528.968 230.5C530.93 231.484 532.313 233.188 532.949 235.114C533.15 235.717 533.288 236.386 533.312 237.028C533.435 238.411 533.18 239.86 532.508 241.192Z" fill="url(#paint4_linear_1_250)"/>
<path id="Fill 69" fill-rule="evenodd" clip-rule="evenodd" d="M532.506 241.192L529.425 247.327L513.27 243.934L518.325 233.875L533.31 237.028C533.433 238.411 533.178 239.86 532.506 241.192Z" fill="#FEFEFE"/>
<path id="Fill 71" fill-rule="evenodd" clip-rule="evenodd" d="M525.219 255.7L520.161 265.759L504.012 262.366L509.064 252.307L525.219 255.7Z" fill="#FEFEFE"/>
<path id="Fill 73" fill-rule="evenodd" clip-rule="evenodd" d="M515.955 274.13L510.9 284.189L494.736 280.82L499.788 270.761L515.955 274.13Z" fill="#FEFEFE"/>
<path id="Fill 75" fill-rule="evenodd" clip-rule="evenodd" d="M506.677 292.587L501.622 302.646L485.473 299.253L490.525 289.194L506.677 292.587Z" fill="#FEFEFE"/>
<path id="Fill 77" fill-rule="evenodd" clip-rule="evenodd" d="M497.416 311.018L492.358 321.077L476.209 317.684L481.261 307.625L497.416 311.018Z" fill="#FEFEFE"/>
<path id="Fill 79" fill-rule="evenodd" clip-rule="evenodd" d="M488.153 329.45L483.098 339.509L466.934 336.14L471.989 326.081L488.153 329.45Z" fill="#FEFEFE"/>
<path id="Fill 81" fill-rule="evenodd" clip-rule="evenodd" d="M478.877 347.906L473.822 357.965L457.67 354.572L462.725 344.513L478.877 347.906Z" fill="#FEFEFE"/>
<path id="Fill 83" fill-rule="evenodd" clip-rule="evenodd" d="M538.358 696.439H410.66C403.037 696.439 396.743 690.475 396.335 682.864L378.773 355.927H572.948L552.674 682.981C552.206 690.544 545.936 696.439 538.358 696.439Z" fill="url(#paint5_linear_1_250)"/>
<path id="Fill 85" fill-rule="evenodd" clip-rule="evenodd" d="M583.501 355.927H368.218C365.242 355.927 362.824 353.512 362.824 350.533C362.824 347.554 365.242 345.139 368.218 345.139H583.501C586.48 345.139 588.895 347.554 588.895 350.533C588.895 353.512 586.48 355.927 583.501 355.927Z" fill="#E8E9EB"/>
<path id="Fill 87" fill-rule="evenodd" clip-rule="evenodd" d="M568.025 345.14H383.699C380.72 345.14 378.305 342.725 378.305 339.746C378.305 336.767 380.72 334.352 383.699 334.352H568.025C571.001 334.352 573.419 336.767 573.419 339.746C573.419 342.725 571.001 345.14 568.025 345.14Z" fill="#FEFEFE"/>
<mask id="mask0_1_250" style="mask-type:luminance" maskUnits="userSpaceOnUse" x="0" y="0" width="852" height="704">
<path id="Clip 90" fill-rule="evenodd" clip-rule="evenodd" d="M0 703.899H851.919V0H0V703.899Z" fill="white"/>
</mask>
<g mask="url(#mask0_1_250)">
<path id="Fill 89" fill-rule="evenodd" clip-rule="evenodd" d="M425.52 696.438H455.538V355.926H425.52V696.438Z" fill="white" fill-opacity="0.5"/>
<path id="Fill 91" fill-rule="evenodd" clip-rule="evenodd" d="M493.998 696.438H524.016V355.926H493.998V696.438Z" fill="white" fill-opacity="0.5"/>
<path id="Fill 92" fill-rule="evenodd" clip-rule="evenodd" d="M537.719 494.252C550.751 519.497 533.618 554.255 499.454 571.892C465.287 589.526 427.031 583.358 413.999 558.113C400.97 532.868 418.1 498.107 452.267 480.473C486.431 462.839 524.69 469.007 537.719 494.252Z" fill="url(#paint6_linear_1_250)"/>
<path id="Fill 93" fill-rule="evenodd" clip-rule="evenodd" d="M530.289 498.087C541.752 520.299 526.68 550.884 496.617 566.4C466.557 581.916 432.897 576.489 421.431 554.277C409.968 532.065 425.04 501.483 455.1 485.964C485.16 470.448 518.823 475.878 530.289 498.087Z" fill="#FCFDFB"/>
<path id="Fill 94" fill-rule="evenodd" clip-rule="evenodd" d="M442.663 94.8673C429.148 88.3153 418.192 77.4583 411.52 64.0033L406.09 53.0533L401.794 62.3413C395.095 76.8193 383.503 88.4743 369.055 95.2423L359.35 99.7963L369.367 104.83C381.412 110.884 391.378 120.394 397.99 132.145L406.09 146.536L412.312 134.767C418.51 123.049 428.011 113.404 439.636 107.029L452.83 99.7963L442.663 94.8673Z" fill="#E8E9EB"/>
<path id="Fill 95" fill-rule="evenodd" clip-rule="evenodd" d="M478.78 13.0234C474.571 10.9834 471.157 7.59937 469.081 3.40837L467.389 0.000366211L466.051 2.89237C463.966 7.40137 460.354 11.0314 455.854 13.1404L452.83 14.5594L455.95 16.1254C459.703 18.0124 462.808 20.9734 464.866 24.6334L467.389 29.1154L469.327 25.4524C471.256 21.8014 474.217 18.7954 477.838 16.8124L481.948 14.5594L478.78 13.0234Z" fill="#E8E9EB"/>
<path id="Fill 96" fill-rule="evenodd" clip-rule="evenodd" d="M370.739 48.4228C366.53 46.3828 363.116 43.0018 361.04 38.8108L359.348 35.3998L358.01 38.2918C355.925 42.8008 352.313 46.4308 347.813 48.5398L344.789 49.9588L347.912 51.5278C351.662 53.4118 354.767 56.3728 356.825 60.0328L359.348 64.5148L361.286 60.8518C363.218 57.2008 366.176 54.1948 369.797 52.2118L373.907 49.9588L370.739 48.4228Z" fill="#E8E9EB"/>
<path id="Stroke 97" d="M374.781 139.708C344.787 177.154 368.109 204.379 389.184 212.263" stroke="#E8E9EB"/>
<path id="Fill 98" fill-rule="evenodd" clip-rule="evenodd" d="M56.601 356.31C49.797 347.616 46.074 336.906 46.02 325.863L45.975 316.878L40.137 321.621C31.032 329.013 19.611 332.958 7.884 332.757L0 332.622L4.986 339.186C10.983 347.079 14.487 356.58 15.054 366.477L15.747 378.597L23.661 372.84C31.542 367.107 40.932 363.81 50.67 363.363L61.719 362.853L56.601 356.31Z" fill="url(#paint7_linear_1_250)"/>
<path id="Fill 99" fill-rule="evenodd" clip-rule="evenodd" d="M106.907 313.955C104.786 311.246 103.628 307.91 103.61 304.472L103.598 301.673L101.78 303.149C98.9423 305.453 95.3873 306.68 91.7333 306.62L89.2793 306.578L90.8333 308.621C92.6993 311.081 93.7913 314.039 93.9683 317.12L94.1813 320.894L96.6473 319.103C99.1013 317.318 102.029 316.289 105.059 316.151L108.5 315.992L106.907 313.955Z" fill="url(#paint8_linear_1_250)"/>
<path id="Fill 100" fill-rule="evenodd" clip-rule="evenodd" d="M24.1319 302.39C22.0109 299.681 20.8529 296.345 20.8349 292.907L20.8199 290.108L19.0049 291.584C16.1669 293.888 12.6119 295.118 8.95791 295.055L6.50391 295.013L8.05791 297.056C9.92391 299.516 11.0159 302.474 11.1929 305.555L11.4059 309.332L13.8719 307.538C16.3259 305.753 19.2539 304.727 22.2839 304.586L25.7249 304.427L24.1319 302.39Z" fill="url(#paint9_linear_1_250)"/>
<path id="Fill 101" fill-rule="evenodd" clip-rule="evenodd" d="M167.116 374.462L164.245 375.335C161.179 365.24 152.503 355.238 142.147 349.856C135.931 346.622 126.163 343.55 114.772 347.273L113.836 344.423C123.634 341.225 133.885 342.176 143.53 347.192C154.567 352.931 163.825 363.635 167.116 374.462Z" fill="url(#paint10_linear_1_250)"/>
<path id="Fill 102" fill-rule="evenodd" clip-rule="evenodd" d="M166.208 285.668L167.9 288.146C159.191 294.098 152.249 305.372 150.215 316.865C148.994 323.765 148.991 334.004 155.957 343.754L153.518 345.5C147.53 337.112 145.367 327.047 147.263 316.343C149.429 304.094 156.866 292.052 166.208 285.668Z" fill="url(#paint11_linear_1_250)"/>
</g>
</g>
<defs>
<linearGradient id="paint0_linear_1_250" x1="727.492" y1="153.129" x2="622.31" y2="267.27" gradientUnits="userSpaceOnUse">
<stop stop-color="#FF8960"/>
<stop offset="1" stop-color="#FF62A5"/>
</linearGradient>
<linearGradient id="paint1_linear_1_250" x1="830.859" y1="123.48" x2="793.243" y2="165.356" gradientUnits="userSpaceOnUse">
<stop stop-color="#FF8960"/>
<stop offset="1" stop-color="#FF62A5"/>
</linearGradient>
<linearGradient id="paint2_linear_1_250" x1="234.154" y1="300.76" x2="111.703" y2="331.192" gradientUnits="userSpaceOnUse">
<stop stop-color="#FF8960"/>
<stop offset="1" stop-color="#FF62A5"/>
</linearGradient>
<linearGradient id="paint3_linear_1_250" x1="336.463" y1="300.761" x2="207.573" y2="334.721" gradientUnits="userSpaceOnUse">
<stop stop-color="#FF8960"/>
<stop offset="1" stop-color="#FF62A5"/>
</linearGradient>
<linearGradient id="paint4_linear_1_250" x1="493.994" y1="159.24" x2="374.058" y2="226.264" gradientUnits="userSpaceOnUse">
<stop stop-color="#B739F3"/>
<stop offset="1" stop-color="#6950FB"/>
</linearGradient>
<linearGradient id="paint5_linear_1_250" x1="510.386" y1="113.602" x2="139.772" y2="284.268" gradientUnits="userSpaceOnUse">
<stop stop-color="#1162D7"/>
<stop offset="0.66199" stop-color="#78F3E3"/>
<stop offset="1" stop-color="#52E5BB"/>
</linearGradient>
<linearGradient id="paint6_linear_1_250" x1="499.409" y1="391.054" x2="339.804" y2="544.125" gradientUnits="userSpaceOnUse">
<stop stop-color="#1162D7"/>
<stop offset="0.66199" stop-color="#78F3E3"/>
<stop offset="1" stop-color="#52E5BB"/>
</linearGradient>
<linearGradient id="paint7_linear_1_250" x1="41.8333" y1="272.955" x2="-44.5893" y2="342.745" gradientUnits="userSpaceOnUse">
<stop stop-color="#1162D7"/>
<stop offset="0.66199" stop-color="#78F3E3"/>
<stop offset="1" stop-color="#52E5BB"/>
</linearGradient>
<linearGradient id="paint8_linear_1_250" x1="102.307" y1="287.995" x2="75.3929" y2="309.729" gradientUnits="userSpaceOnUse">
<stop stop-color="#1162D7"/>
<stop offset="0.66199" stop-color="#78F3E3"/>
<stop offset="1" stop-color="#52E5BB"/>
</linearGradient>
<linearGradient id="paint9_linear_1_250" x1="19.532" y1="276.427" x2="-7.38576" y2="298.161" gradientUnits="userSpaceOnUse">
<stop stop-color="#1162D7"/>
<stop offset="0.66199" stop-color="#78F3E3"/>
<stop offset="1" stop-color="#52E5BB"/>
</linearGradient>
<linearGradient id="paint10_linear_1_250" x1="149.949" y1="319.251" x2="104.706" y2="378.662" gradientUnits="userSpaceOnUse">
<stop stop-color="#1162D7"/>
<stop offset="0.66199" stop-color="#78F3E3"/>
<stop offset="1" stop-color="#52E5BB"/>
</linearGradient>
<linearGradient id="paint11_linear_1_250" x1="161.036" y1="243.088" x2="115.514" y2="256.177" gradientUnits="userSpaceOnUse">
<stop stop-color="#1162D7"/>
<stop offset="0.66199" stop-color="#78F3E3"/>
<stop offset="1" stop-color="#52E5BB"/>
</linearGradient>
</defs>
</svg>
